<svg xmlns="http://www.w3.org/2000/svg" width="240" height="240" viewBox="0 0 240 240">
  <title>arpeggio</title>
  <g id="eee02376-8346-4a5f-bd1c-d44a821e120e" data-name="Layer 2">
    <g id="a593946e-2581-4cd3-bfd1-f8eaecf9a66d" data-name="Layer 1">
      <polygon points="99.2 0 140.68 0 140.68 41.24 99.44 41.24 99.2 0"/>
      <polygon points="99.2 49.6 140.68 49.6 140.68 90.84 99.44 90.84 99.2 49.6"/>
      <rect y="99.32" width="41.24" height="41.24"/>
      <polygon points="99.2 99.32 140.68 99.32 140.68 140.56 99.44 140.56 99.2 99.32"/>
      <polygon points="99.2 149.04 140.68 149.04 140.68 190.28 99.44 190.28 99.2 149.04"/>
      <rect x="198.76" y="99.32" width="41.24" height="41.24"/>
      <rect y="198.76" width="41.24" height="41.24"/>
      <polygon points="99.2 198.76 140.68 198.76 140.68 240 99.44 240 99.2 198.76"/>
      <rect x="198.76" y="198.76" width="41.24" height="41.24"/>
    </g>
  </g>
</svg>
