<svg xmlns="http://www.w3.org/2000/svg" width="240" height="240" viewBox="0 0 240 240">
  <title>bass</title>
  <g id="a7769dcf-ca8a-4258-b72e-662085b1e398" data-name="Layer 2">
    <g id="fb395ff0-3eb6-494a-be67-bbfd3d2ad5a2" data-name="Layer 1">
      <polygon points="99.2 0 140.68 0 140.68 41.24 99.44 41.24 99.2 0"/>
      <polygon points="99.2 49.72 140.68 49.72 140.68 90.96 99.44 90.96 99.2 49.72"/>
      <rect x="49.72" y="99.32" width="41.24" height="41.24"/>
      <polygon points="99.2 99.32 140.68 99.32 140.68 140.56 99.44 140.56 99.2 99.32"/>
      <rect x="149.04" y="99.32" width="41.24" height="41.24"/>
      <rect y="149.04" width="41.24" height="41.24"/>
      <rect x="49.72" y="149.04" width="41.24" height="41.24"/>
      <polygon points="99.2 149.04 140.68 149.04 140.68 190.28 99.44 190.28 99.2 149.04"/>
      <rect x="149.04" y="149.04" width="41.24" height="41.24"/>
      <rect x="198.76" y="149.04" width="41.24" height="41.24"/>
      <rect x="49.72" y="198.76" width="41.24" height="41.24"/>
      <rect x="149.04" y="198.76" width="41.24" height="41.24"/>
    </g>
  </g>
</svg>
