<svg xmlns="http://www.w3.org/2000/svg" width="240" height="169.63" viewBox="0 0 240 169.63">
  <title>blip</title>
  <g id="ec457cc5-27d6-4186-a6e0-b8bd2e9dec28" data-name="Layer 2">
    <g id="abf14211-5e90-4639-99f0-ede6ba1be698" data-name="Layer 1">
      <rect x="35.14" width="29.15" height="29.15"/>
      <rect x="175.63" width="29.15" height="29.15"/>
      <rect x="70.29" y="35.22" width="29.15" height="29.15"/>
      <rect x="140.49" y="35.22" width="29.15" height="29.15"/>
      <rect y="70.2" width="29.15" height="29.15"/>
      <rect x="35.14" y="70.2" width="29.15" height="29.15"/>
      <rect x="70.29" y="70.2" width="29.15" height="29.15"/>
      <rect x="105.43" y="70.2" width="29.15" height="29.15"/>
      <rect x="140.49" y="70.2" width="29.15" height="29.15"/>
      <rect x="175.63" y="70.2" width="29.15" height="29.15"/>
      <rect x="210.85" y="70.2" width="29.15" height="29.15"/>
      <rect x="70.29" y="105.34" width="29.15" height="29.15"/>
      <rect x="105.43" y="105.34" width="29.15" height="29.15"/>
      <rect x="140.49" y="105.34" width="29.15" height="29.15"/>
      <rect x="35.14" y="140.49" width="29.15" height="29.15"/>
      <rect x="175.63" y="140.49" width="29.15" height="29.15"/>
    </g>
  </g>
</svg>
