<svg xmlns="http://www.w3.org/2000/svg" width="241" height="240.97" viewBox="0 0 241 240.97">
  <title>button</title>
  <g id="a3196aed-25aa-4563-b627-55e019370067" data-name="Layer 2">
    <g id="f7abc570-bfd8-4141-9678-9dee65177334" data-name="Layer 1">
      <path d="M240.5,120.49a120,120,0,1,1-120-120c65.6.88,120,54.38,120,120" fill="none" stroke="#000" stroke-miterlimit="10"/>
      <path d="M50.88,40.59a13.36,13.36,0,0,0-13.05,13V85.83h1.82a.86.86,0,0,1,.88.88l.95.94c0,.88.88,2.12.88,3v57.41a4.08,4.08,0,0,1-.88,3c-.89,0-.89.89-2.12.89a.88.88,0,0,0-.88.94h-.94v32.18a13.35,13.35,0,0,0,13.05,13H88.86A5,5,0,0,1,94,203.35v.88h53.5v.94a4.91,4.91,0,0,1,5.14-5.17h38.27A13.38,13.38,0,0,0,204,186.91V154.49h-1.82s-.94,0-.94-.88l-.88-.94c0-.88-.94-2.11-.94-3V92.24a4.11,4.11,0,0,1,.88-3l.94-.94a.86.86,0,0,0,.88-.88.92.92,0,0,0,.94-.94h.88V54.26a13.32,13.32,0,0,0-13-13h-16.1a7.49,7.49,0,0,1-7-5.17h-93a7.46,7.46,0,0,1-7,5.2H50.79v-.88Z" fill="none" stroke="#000" stroke-miterlimit="10"/>
      <path d="M77,120.49A43.43,43.43,0,1,0,120.46,77,43.61,43.61,0,0,0,77,120.49" fill="none" stroke="#000" stroke-miterlimit="10"/>
    </g>
  </g>
</svg>
