<svg xmlns="http://www.w3.org/2000/svg" width="240" height="240.12" viewBox="0 0 240 240.12">
  <title>echo</title>
  <g id="a0cc1cf6-93d4-4b3b-b7e8-ab073d953865" data-name="Layer 2">
    <g id="b1a223bd-b475-4e64-b76d-3ddec59408ee" data-name="Layer 1">
      <rect width="41.24" height="41.24"/>
      <rect x="49.72" width="41.24" height="41.24"/>
      <rect x="149.04" width="41.24" height="41.24"/>
      <rect x="198.76" width="41.24" height="41.24"/>
      <rect y="49.72" width="41.24" height="41.24"/>
      <rect x="49.72" y="49.72" width="41.24" height="41.24"/>
      <rect x="99.56" y="49.72" width="41.24" height="41.24"/>
      <rect x="149.04" y="49.72" width="41.24" height="41.24"/>
      <rect x="198.76" y="49.72" width="41.24" height="41.24"/>
      <rect y="99.32" width="41.24" height="41.24"/>
      <rect x="49.72" y="99.32" width="41.24" height="41.24"/>
      <rect x="99.56" y="99.32" width="41.24" height="41.24"/>
      <rect x="149.04" y="99.32" width="41.24" height="41.24"/>
      <rect x="198.76" y="99.32" width="41.24" height="41.24"/>
      <rect x="49.72" y="149.16" width="41.24" height="41.24"/>
      <rect x="99.56" y="149.16" width="41.24" height="41.24"/>
      <rect x="149.04" y="149.16" width="41.24" height="41.24"/>
      <rect x="99.56" y="198.65" width="41.24" height="41.47"/>
    </g>
  </g>
</svg>
