<svg viewBox="534.853 243.309 36.434 36.039" width="36.434" height="36.039">
  <path d="m 195.316 227.608 Z Z Z M 190.181 193.607 L 190.533 193.607 L 190.533 193.957 L 190.183 193.957 Z M 190.181 194.029 L 190.533 194.029 L 190.533 194.379 L 190.183 194.379 Z M 189.761 194.45 L 190.111 194.45 L 190.111 194.8 L 189.761 194.8 Z M 190.181 194.45 L 190.533 194.45 L 190.533 194.8 L 190.183 194.8 Z M 190.604 194.45 L 190.954 194.45 L 190.954 194.8 L 190.604 194.8 Z M 189.339 194.872 L 189.689 194.872 L 189.689 195.222 L 189.339 195.222 Z M 189.761 194.872 L 190.111 194.872 L 190.111 195.222 L 189.761 195.222 Z M 190.181 194.872 L 190.533 194.872 L 190.533 195.222 L 190.183 195.222 Z M 190.604 194.872 L 190.954 194.872 L 190.954 195.222 L 190.604 195.222 Z M 191.026 194.872 L 191.376 194.872 L 191.376 195.222 L 191.026 195.222 Z M 189.761 195.294 L 190.111 195.294 L 190.111 195.644 L 189.761 195.644 Z M 190.604 195.294 L 190.954 195.294 L 190.954 195.644 L 190.604 195.644 Z M 199.441 193.607 L 199.791 193.607 L 199.791 193.957 L 199.441 193.957 Z M 200.285 193.607 L 200.635 193.607 L 200.635 193.957 L 200.285 193.957 Z M 201.128 193.607 L 201.478 193.607 L 201.478 193.957 L 201.128 193.957 Z M 199.863 194.029 L 200.213 194.029 L 200.213 194.379 L 199.863 194.379 Z M 200.706 194.029 L 201.056 194.029 L 201.056 194.379 L 200.706 194.379 Z M 199.441 194.45 L 199.791 194.45 L 199.791 194.8 L 199.441 194.8 Z M 200.285 194.45 L 200.635 194.45 L 200.635 194.8 L 200.285 194.8 Z M 201.128 194.45 L 201.478 194.45 L 201.478 194.8 L 201.128 194.8 Z M 199.863 194.872 L 200.213 194.872 L 200.213 195.222 L 199.863 195.222 Z M 200.706 194.872 L 201.056 194.872 L 201.056 195.222 L 200.706 195.222 Z M 199.441 195.294 L 199.791 195.294 L 199.791 195.644 L 199.441 195.644 Z M 200.285 195.294 L 200.635 195.294 L 200.635 195.644 L 200.285 195.644 Z M 201.128 195.294 L 201.478 195.294 L 201.478 195.644 L 201.128 195.644 Z M 210.858 193.607 L 211.208 193.607 L 211.208 193.957 L 210.858 193.957 Z M 210.436 194.029 L 210.786 194.029 L 210.786 194.379 L 210.436 194.379 Z M 210.014 194.45 L 210.364 194.45 L 210.364 194.8 L 210.014 194.8 Z M 209.591 194.872 L 209.943 194.872 L 209.943 195.222 L 209.593 195.222 Z M 209.171 195.294 L 209.521 195.294 L 209.521 195.644 L 209.171 195.644 Z M 219.548 193.607 L 219.898 193.607 L 219.898 193.957 L 219.548 193.957 Z M 219.971 193.607 L 220.321 193.607 L 220.321 193.957 L 219.971 193.957 Z M 220.391 193.607 L 220.741 193.607 L 220.741 193.957 L 220.391 193.957 Z M 219.126 194.029 L 219.476 194.029 L 219.476 194.379 L 219.126 194.379 Z M 219.548 194.029 L 219.898 194.029 L 219.898 194.379 L 219.548 194.379 Z M 219.971 194.029 L 220.321 194.029 L 220.321 194.379 L 219.971 194.379 Z M 220.391 194.029 L 220.741 194.029 L 220.741 194.379 L 220.391 194.379 Z M 220.813 194.029 L 221.163 194.029 L 221.163 194.379 L 220.813 194.379 Z M 219.126 194.45 L 219.476 194.45 L 219.476 194.8 L 219.126 194.8 Z M 219.971 194.45 L 220.321 194.45 L 220.321 194.8 L 219.971 194.8 Z M 220.813 194.45 L 221.163 194.45 L 221.163 194.8 L 220.813 194.8 Z M 219.126 194.872 L 219.476 194.872 L 219.476 195.222 L 219.126 195.222 Z M 220.813 194.872 L 221.163 194.872 L 221.163 195.222 L 220.813 195.222 Z M 219.548 195.294 L 219.898 195.294 L 219.898 195.644 L 219.548 195.644 Z M 220.391 195.294 L 220.741 195.294 L 220.741 195.644 L 220.391 195.644 Z M 189.761 205.001 L 190.111 205.001 L 190.111 205.351 L 189.761 205.351 Z M 190.181 205.001 L 190.533 205.001 L 190.533 205.351 L 190.183 205.351 Z M 190.604 205.001 L 190.954 205.001 L 190.954 205.351 L 190.604 205.351 Z M 189.339 205.424 L 189.689 205.424 L 189.689 205.774 L 189.339 205.774 Z M 190.181 205.424 L 190.533 205.424 L 190.533 205.774 L 190.183 205.774 Z M 191.026 205.424 L 191.376 205.424 L 191.376 205.774 L 191.026 205.774 Z M 189.339 205.844 L 189.689 205.844 L 189.689 206.194 L 189.339 206.194 Z M 189.761 205.844 L 190.111 205.844 L 190.111 206.194 L 189.761 206.194 Z M 190.181 205.844 L 190.533 205.844 L 190.533 206.194 L 190.183 206.194 Z M 190.604 205.844 L 190.954 205.844 L 190.954 206.194 L 190.604 206.194 Z M 191.026 205.844 L 191.376 205.844 L 191.376 206.194 L 191.026 206.194 Z M 189.761 206.266 L 190.111 206.266 L 190.111 206.616 L 189.761 206.616 Z M 190.604 206.266 L 190.954 206.266 L 190.954 206.616 L 190.604 206.616 Z M 189.339 206.688 L 189.689 206.688 L 189.689 207.038 L 189.339 207.038 Z M 191.026 206.688 L 191.376 206.688 L 191.376 207.038 L 191.026 207.038 Z M 199.441 205.001 L 199.791 205.001 L 199.791 205.351 L 199.441 205.351 Z M 201.128 205.001 L 201.478 205.001 L 201.478 205.351 L 201.128 205.351 Z M 199.863 205.424 L 200.213 205.424 L 200.213 205.774 L 199.863 205.774 Z M 200.706 205.424 L 201.056 205.424 L 201.056 205.774 L 200.706 205.774 Z M 199.019 205.844 L 199.369 205.844 L 199.369 206.194 L 199.019 206.194 Z M 199.441 205.844 L 199.791 205.844 L 199.791 206.194 L 199.441 206.194 Z M 199.863 205.844 L 200.213 205.844 L 200.213 206.194 L 199.863 206.194 Z M 200.285 205.844 L 200.635 205.844 L 200.635 206.194 L 200.285 206.194 Z M 200.706 205.844 L 201.056 205.844 L 201.056 206.194 L 200.706 206.194 Z M 201.128 205.844 L 201.478 205.844 L 201.478 206.194 L 201.128 206.194 Z M 201.551 205.844 L 201.901 205.844 L 201.901 206.194 L 201.551 206.194 Z M 199.863 206.266 L 200.213 206.266 L 200.213 206.616 L 199.863 206.616 Z M 200.285 206.266 L 200.635 206.266 L 200.635 206.616 L 200.285 206.616 Z M 200.706 206.266 L 201.056 206.266 L 201.056 206.616 L 200.706 206.616 Z M 199.441 206.688 L 199.791 206.688 L 199.791 207.038 L 199.441 207.038 Z M 201.128 206.688 L 201.478 206.688 L 201.478 207.038 L 201.128 207.038 Z M 210.014 216.307 L 210.364 216.307 L 210.364 216.657 L 210.014 216.657 Z M 209.591 216.728 L 209.943 216.728 L 209.943 217.078 L 209.593 217.078 Z M 209.171 217.15 L 209.521 217.15 L 209.521 217.5 L 209.171 217.5 Z M 209.591 217.15 L 209.943 217.15 L 209.943 217.5 L 209.593 217.5 Z M 210.014 217.15 L 210.364 217.15 L 210.364 217.5 L 210.014 217.5 Z M 210.436 217.15 L 210.786 217.15 L 210.786 217.5 L 210.436 217.5 Z M 210.858 217.15 L 211.208 217.15 L 211.208 217.5 L 210.858 217.5 Z M 210.436 217.572 L 210.786 217.572 L 210.786 217.922 L 210.436 217.922 Z M 210.014 217.994 L 210.364 217.994 L 210.364 218.344 L 210.014 218.344 Z M 219.126 205.001 L 219.476 205.001 L 219.476 205.351 L 219.126 205.351 Z M 219.548 205.001 L 219.898 205.001 L 219.898 205.351 L 219.548 205.351 Z M 219.971 205.001 L 220.321 205.001 L 220.321 205.351 L 219.971 205.351 Z M 220.391 205.001 L 220.741 205.001 L 220.741 205.351 L 220.391 205.351 Z M 219.548 205.424 L 219.898 205.424 L 219.898 205.774 L 219.548 205.774 Z M 219.971 205.424 L 220.321 205.424 L 220.321 205.774 L 219.971 205.774 Z M 220.391 205.424 L 220.741 205.424 L 220.741 205.774 L 220.391 205.774 Z M 220.813 205.424 L 221.163 205.424 L 221.163 205.774 L 220.813 205.774 Z M 219.126 205.844 L 219.476 205.844 L 219.476 206.194 L 219.126 206.194 Z M 219.548 205.844 L 219.898 205.844 L 219.898 206.194 L 219.548 206.194 Z M 219.971 205.844 L 220.321 205.844 L 220.321 206.194 L 219.971 206.194 Z M 220.391 205.844 L 220.741 205.844 L 220.741 206.194 L 220.391 206.194 Z M 219.548 206.266 L 219.898 206.266 L 219.898 206.616 L 219.548 206.616 Z M 219.971 206.266 L 220.321 206.266 L 220.321 206.616 L 219.971 206.616 Z M 220.391 206.266 L 220.741 206.266 L 220.741 206.616 L 220.391 206.616 Z M 220.813 206.266 L 221.163 206.266 L 221.163 206.616 L 220.813 206.616 Z M 219.126 206.688 L 219.476 206.688 L 219.476 207.038 L 219.126 207.038 Z M 219.548 206.688 L 219.898 206.688 L 219.898 207.038 L 219.548 207.038 Z M 219.971 206.688 L 220.321 206.688 L 220.321 207.038 L 219.971 207.038 Z M 220.391 206.688 L 220.741 206.688 L 220.741 207.038 L 220.391 207.038 Z M 190.181 216.307 L 190.533 216.307 L 190.533 216.657 L 190.183 216.657 Z M 190.181 216.728 L 190.533 216.728 L 190.533 217.078 L 190.183 217.078 Z M 189.339 217.15 L 189.689 217.15 L 189.689 217.5 L 189.339 217.5 Z M 190.181 217.15 L 190.533 217.15 L 190.533 217.5 L 190.183 217.5 Z M 190.181 217.572 L 190.533 217.572 L 190.533 217.922 L 190.183 217.922 Z M 191.026 217.15 L 191.376 217.15 L 191.376 217.5 L 191.026 217.5 Z M 189.339 217.994 L 189.689 217.994 L 189.689 218.344 L 189.339 218.344 Z M 190.181 217.994 L 190.533 217.994 L 190.533 218.344 L 190.183 218.344 Z M 191.026 217.994 L 191.376 217.994 L 191.376 218.344 L 191.026 218.344 Z M 199.441 216.307 L 199.791 216.307 L 199.791 216.657 L 199.441 216.657 Z M 201.128 216.307 L 201.478 216.307 L 201.478 216.657 L 201.128 216.657 Z M 199.863 216.728 L 200.213 216.728 L 200.213 217.078 L 199.863 217.078 Z M 200.706 216.728 L 201.056 216.728 L 201.056 217.078 L 200.706 217.078 Z M 200.285 217.15 L 200.635 217.15 L 200.635 217.5 L 200.285 217.5 Z M 199.863 217.572 L 200.213 217.572 L 200.213 217.922 L 199.863 217.922 Z M 200.706 217.572 L 201.056 217.572 L 201.056 217.922 L 200.706 217.922 Z M 199.441 217.994 L 199.791 217.994 L 199.791 218.344 L 199.441 218.344 Z M 201.128 217.994 L 201.478 217.994 L 201.478 218.344 L 201.128 218.344 Z M 209.591 205.001 L 209.943 205.001 L 209.943 205.351 L 209.593 205.351 Z M 210.014 205.001 L 210.364 205.001 L 210.364 205.351 L 210.014 205.351 Z M 210.436 205.001 L 210.786 205.001 L 210.786 205.351 L 210.436 205.351 Z M 209.171 205.424 L 209.521 205.424 L 209.521 205.774 L 209.171 205.774 Z M 210.014 205.424 L 210.364 205.424 L 210.364 205.774 L 210.014 205.774 Z M 210.858 205.424 L 211.208 205.424 L 211.208 205.774 L 210.858 205.774 Z M 209.171 205.844 L 209.521 205.844 L 209.521 206.194 L 209.171 206.194 Z M 209.591 205.844 L 209.943 205.844 L 209.943 206.194 L 209.593 206.194 Z M 210.014 205.844 L 210.364 205.844 L 210.364 206.194 L 210.014 206.194 Z M 210.436 205.844 L 210.786 205.844 L 210.786 206.194 L 210.436 206.194 Z M 210.858 205.844 L 211.208 205.844 L 211.208 206.194 L 210.858 206.194 Z M 209.171 206.266 L 209.521 206.266 L 209.521 206.616 L 209.171 206.616 Z M 209.591 206.266 L 209.943 206.266 L 209.943 206.616 L 209.593 206.616 Z M 210.014 206.266 L 210.364 206.266 L 210.364 206.616 L 210.014 206.616 Z M 210.436 206.266 L 210.786 206.266 L 210.786 206.616 L 210.436 206.616 Z M 210.858 206.266 L 211.208 206.266 L 211.208 206.616 L 210.858 206.616 Z M 209.171 206.688 L 209.521 206.688 L 209.521 207.038 L 209.171 207.038 Z M 210.014 206.688 L 210.364 206.688 L 210.364 207.038 L 210.014 207.038 Z M 210.858 206.688 L 211.208 206.688 L 211.208 207.038 L 210.858 207.038 Z M 189.761 228.03 L 190.111 228.03 L 190.111 228.38 L 189.761 228.38 Z M 190.181 228.03 L 190.533 228.03 L 190.533 228.38 L 190.183 228.38 Z M 190.604 228.03 L 190.954 228.03 L 190.954 228.38 L 190.604 228.38 Z M 189.339 228.451 L 189.689 228.451 L 189.689 228.801 L 189.339 228.801 Z M 189.761 228.451 L 190.111 228.451 L 190.111 228.801 L 189.761 228.801 Z M 190.181 228.451 L 190.533 228.451 L 190.533 228.801 L 190.183 228.801 Z M 190.604 228.451 L 190.954 228.451 L 190.954 228.801 L 190.604 228.801 Z M 191.026 228.451 L 191.376 228.451 L 191.376 228.801 L 191.026 228.801 Z M 188.917 228.874 L 189.267 228.874 L 189.267 229.224 L 188.917 229.224 Z M 189.339 228.874 L 189.689 228.874 L 189.689 229.224 L 189.339 229.224 Z M 189.761 228.874 L 190.111 228.874 L 190.111 229.224 L 189.761 229.224 Z M 190.181 228.874 L 190.533 228.874 L 190.533 229.224 L 190.183 229.224 Z M 190.604 228.874 L 190.954 228.874 L 190.954 229.224 L 190.604 229.224 Z M 191.026 228.874 L 191.376 228.874 L 191.376 229.224 L 191.026 229.224 Z M 191.447 228.874 L 191.797 228.874 L 191.797 229.224 L 191.447 229.224 Z M 189.339 229.294 L 189.689 229.294 L 189.689 229.646 L 189.339 229.646 Z M 190.181 229.294 L 190.533 229.294 L 190.533 229.646 L 190.183 229.646 Z M 191.026 229.294 L 191.376 229.294 L 191.376 229.646 L 191.026 229.646 Z M 209.171 227.608 L 209.521 227.608 L 209.521 227.958 L 209.171 227.958 Z M 210.858 227.608 L 211.208 227.608 L 211.208 227.958 L 210.858 227.958 Z M 209.591 228.03 L 209.943 228.03 L 209.943 228.38 L 209.593 228.38 Z M 210.014 228.03 L 210.364 228.03 L 210.364 228.38 L 210.014 228.38 Z M 210.436 228.03 L 210.786 228.03 L 210.786 228.38 L 210.436 228.38 Z M 209.171 228.451 L 209.521 228.451 L 209.521 228.801 L 209.171 228.801 Z M 209.591 228.451 L 209.943 228.451 L 209.943 228.801 L 209.593 228.801 Z M 210.014 228.451 L 210.364 228.451 L 210.364 228.801 L 210.014 228.801 Z M 210.436 228.451 L 210.786 228.451 L 210.786 228.801 L 210.436 228.801 Z M 210.858 228.451 L 211.208 228.451 L 211.208 228.801 L 210.858 228.801 Z M 209.171 228.874 L 209.521 228.874 L 209.521 229.224 L 209.171 229.224 Z M 210.014 228.874 L 210.364 228.874 L 210.364 229.224 L 210.014 229.224 Z M 210.858 228.874 L 211.208 228.874 L 211.208 229.224 L 210.858 229.224 Z M 209.171 229.294 L 209.521 229.294 L 209.521 229.646 L 209.171 229.646 Z M 209.591 229.294 L 209.943 229.294 L 209.943 229.646 L 209.593 229.646 Z M 210.436 229.294 L 210.786 229.294 L 210.786 229.646 L 210.436 229.646 Z M 210.858 229.294 L 211.208 229.294 L 211.208 229.646 L 210.858 229.646 Z M 199.441 227.608 L 199.791 227.608 L 199.791 227.958 L 199.441 227.958 Z M 201.128 227.608 L 201.478 227.608 L 201.478 227.958 L 201.128 227.958 Z M 199.019 228.03 L 199.369 228.03 L 199.369 228.38 L 199.019 228.38 Z M 200.285 228.03 L 200.635 228.03 L 200.635 228.38 L 200.285 228.38 Z M 201.551 228.03 L 201.901 228.03 L 201.901 228.38 L 201.551 228.38 Z M 199.441 228.451 L 199.791 228.451 L 199.791 228.801 L 199.441 228.801 Z M 199.863 228.451 L 200.213 228.451 L 200.213 228.801 L 199.863 228.801 Z M 200.285 228.451 L 200.635 228.451 L 200.635 228.801 L 200.285 228.801 Z M 200.706 228.451 L 201.056 228.451 L 201.056 228.801 L 200.706 228.801 Z M 201.128 228.451 L 201.478 228.451 L 201.478 228.801 L 201.128 228.801 Z M 199.863 228.874 L 200.213 228.874 L 200.213 229.224 L 199.863 229.224 Z M 200.285 228.874 L 200.635 228.874 L 200.635 229.224 L 200.285 229.224 Z M 200.706 228.874 L 201.056 228.874 L 201.056 229.224 L 200.706 229.224 Z M 199.441 229.294 L 199.791 229.294 L 199.791 229.646 L 199.441 229.646 Z M 200.285 229.294 L 200.635 229.294 L 200.635 229.646 L 200.285 229.646 Z M 201.128 229.294 L 201.478 229.294 L 201.478 229.646 L 201.128 229.646 Z M 219.126 216.307 L 219.476 216.307 L 219.476 216.657 L 219.126 216.657 Z M 219.548 216.307 L 219.898 216.307 L 219.898 216.657 L 219.548 216.657 Z M 219.971 216.307 L 220.321 216.307 L 220.321 216.657 L 219.971 216.657 Z M 219.126 216.728 L 219.476 216.728 L 219.476 217.078 L 219.126 217.078 Z M 219.971 216.728 L 220.321 216.728 L 220.321 217.078 L 219.971 217.078 Z M 219.126 217.15 L 219.476 217.15 L 219.476 217.5 L 219.126 217.5 Z M 219.971 217.15 L 220.321 217.15 L 220.321 217.5 L 219.971 217.5 Z M 219.126 217.572 L 219.476 217.572 L 219.476 217.922 L 219.126 217.922 Z M 219.971 217.572 L 220.321 217.572 L 220.321 217.922 L 219.971 217.922 Z M 220.813 217.572 L 221.163 217.572 L 221.163 217.922 L 220.813 217.922 Z M 219.971 217.994 L 220.321 217.994 L 220.321 218.344 L 219.971 218.344 Z M 220.391 217.994 L 220.741 217.994 L 220.741 218.344 L 220.391 218.344 Z M 220.813 217.994 L 221.163 217.994 L 221.163 218.344 L 220.813 218.344 Z M 219.126 227.608 L 219.476 227.608 L 219.476 227.958 L 219.126 227.958 Z M 219.548 227.608 L 219.898 227.608 L 219.898 227.958 L 219.548 227.958 Z M 220.391 227.608 L 220.741 227.608 L 220.741 227.958 L 220.391 227.958 Z M 220.813 227.608 L 221.163 227.608 L 221.163 227.958 L 220.813 227.958 Z M 219.126 228.03 L 219.476 228.03 L 219.476 228.38 L 219.126 228.38 Z M 219.548 228.03 L 219.898 228.03 L 219.898 228.38 L 219.548 228.38 Z M 219.971 228.03 L 220.321 228.03 L 220.321 228.38 L 219.971 228.38 Z M 220.391 228.03 L 220.741 228.03 L 220.741 228.38 L 220.391 228.38 Z M 220.813 228.03 L 221.163 228.03 L 221.163 228.38 L 220.813 228.38 Z M 219.126 228.451 L 219.476 228.451 L 219.476 228.801 L 219.126 228.801 Z M 219.548 228.451 L 219.898 228.451 L 219.898 228.801 L 219.548 228.801 Z M 219.971 228.451 L 220.321 228.451 L 220.321 228.801 L 219.971 228.801 Z M 220.391 228.451 L 220.741 228.451 L 220.741 228.801 L 220.391 228.801 Z M 220.813 228.451 L 221.163 228.451 L 221.163 228.801 L 220.813 228.801 Z M 219.548 228.874 L 219.898 228.874 L 219.898 229.224 L 219.548 229.224 Z M 219.971 228.874 L 220.321 228.874 L 220.321 229.224 L 219.971 229.224 Z M 220.391 228.874 L 220.741 228.874 L 220.741 229.224 L 220.391 229.224 Z M 219.971 229.294 L 220.321 229.294 L 220.321 229.646 L 219.971 229.646 Z"></path>
</svg>