<svg xmlns="http://www.w3.org/2000/svg" width="240" height="134.67" viewBox="0 0 240 134.67">
  <title>lead</title>
  <g id="a88f854b-d825-4164-a54e-f4335ce1de68" data-name="Layer 2">
    <g id="b1acad6d-32b1-4cd8-859c-347207d6dd9e" data-name="Layer 1">
      <rect x="70.33" width="29.17" height="29.17"/>
      <polygon points="105.33 0 134.67 0 134.67 29.17 105.5 29.17 105.33 0"/>
      <rect x="140.58" width="29.17" height="29.17"/>
      <rect x="35.17" y="35.08" width="29.17" height="29.17"/>
      <rect x="70.33" y="35.08" width="29.17" height="29.17"/>
      <polygon points="105.33 35.08 134.67 35.08 134.67 64.25 105.5 64.25 105.33 35.08"/>
      <rect x="140.58" y="35.08" width="29.17" height="29.17"/>
      <rect x="175.75" y="35.08" width="29.17" height="29.17"/>
      <rect y="70.33" width="29.17" height="29.17"/>
      <rect x="35.17" y="70.33" width="29.17" height="29.17"/>
      <rect x="70.33" y="70.33" width="29.17" height="29.17"/>
      <polygon points="105.33 70.33 134.67 70.33 134.67 99.5 105.5 99.5 105.33 70.33"/>
      <rect x="140.58" y="70.33" width="29.17" height="29.17"/>
      <rect x="175.75" y="70.33" width="29.17" height="29.17"/>
      <rect x="210.83" y="70.33" width="29.17" height="29.17"/>
      <rect x="35.17" y="105.33" width="29.17" height="29.33"/>
      <polygon points="105.33 105.33 134.67 105.33 134.67 134.67 105.5 134.67 105.33 105.33"/>
      <rect x="175.75" y="105.33" width="29.17" height="29.33"/>
    </g>
  </g>
</svg>
