<svg xmlns="http://www.w3.org/2000/svg" width="240" height="240" viewBox="0 0 240 240">
  <title>noiseFx</title>
  <g id="a7642163-f729-429d-901d-539994715f3e" data-name="Layer 2">
    <g id="bdd6d9df-3b0b-43fb-b597-1495cc65213f" data-name="Layer 1">
      <rect width="41.24" height="41.24"/>
      <rect x="49.72" width="41.24" height="41.24"/>
      <rect x="99.56" width="41.24" height="41.24"/>
      <rect x="149.04" width="41.24" height="41.24"/>
      <rect x="49.72" y="49.84" width="41.24" height="41.24"/>
      <rect x="99.56" y="49.84" width="41.24" height="41.24"/>
      <rect x="149.04" y="49.84" width="41.24" height="41.24"/>
      <rect x="198.76" y="49.84" width="41.24" height="41.24"/>
      <rect y="99.32" width="41.24" height="41.24"/>
      <rect x="49.72" y="99.32" width="41.24" height="41.24"/>
      <rect x="99.56" y="99.32" width="41.24" height="41.24"/>
      <rect x="149.04" y="99.32" width="41.24" height="41.24"/>
      <rect x="49.72" y="149.04" width="41.24" height="41.24"/>
      <rect x="99.56" y="149.04" width="41.24" height="41.24"/>
      <rect x="149.04" y="149.04" width="41.24" height="41.24"/>
      <rect x="198.76" y="149.04" width="41.24" height="41.24"/>
      <rect y="198.76" width="41.24" height="41.24"/>
      <rect x="49.72" y="198.76" width="41.24" height="41.24"/>
      <rect x="99.56" y="198.76" width="41.24" height="41.24"/>
      <rect x="149.04" y="198.76" width="41.24" height="41.24"/>
    </g>
  </g>
</svg>
