<svg xmlns="http://www.w3.org/2000/svg" width="240" height="169.71" viewBox="0 0 240 169.71">
  <title>vibrato</title>
  <g id="f1b03846-02ef-4023-9e49-8cf362f7f9d4" data-name="Layer 2">
    <g id="f925f41e-8cba-47db-9d04-6c28f5594c9f" data-name="Layer 1">
      <rect x="35.14" width="29.15" height="29.15"/>
      <rect x="175.63" width="29.15" height="29.15"/>
      <rect y="35.14" width="29.15" height="29.15"/>
      <rect x="105.43" y="35.14" width="29.15" height="29.15"/>
      <rect x="210.85" y="35.14" width="29.15" height="29.15"/>
      <rect x="35.14" y="70.2" width="29.15" height="29.15"/>
      <rect x="70.29" y="70.2" width="29.15" height="29.15"/>
      <rect x="105.43" y="70.2" width="29.15" height="29.15"/>
      <rect x="140.49" y="70.2" width="29.15" height="29.15"/>
      <rect x="175.63" y="70.2" width="29.15" height="29.15"/>
      <rect x="70.29" y="105.43" width="29.15" height="29.15"/>
      <rect x="105.43" y="105.43" width="29.15" height="29.15"/>
      <rect x="140.49" y="105.43" width="29.15" height="29.15"/>
      <rect x="35.14" y="140.4" width="29.15" height="29.31"/>
      <rect x="105.43" y="140.4" width="29.15" height="29.31"/>
      <rect x="175.63" y="140.4" width="29.15" height="29.31"/>
    </g>
  </g>
</svg>
